<?xml version="1.0" encoding="UTF-8"?>
<svg xmlns="http://www.w3.org/2000/svg" version="1.1" viewBox="0 0 565 587">
  <!-- Generator: Adobe Illustrator 30.2.1, SVG Export Plug-In . SVG Version: 2.1.1 Build 1)  -->
  <defs>
    <style>
      .st0 {
        fill: #fb0;
      }

      .st1 {
        stroke: #064617;
        stroke-width: 8px;
      }

      .st1, .st2 {
        fill: none;
        stroke-linecap: round;
      }

      .st2 {
        isolation: isolate;
        opacity: .9;
        stroke: #372a14;
        stroke-width: 15px;
      }

      .st3 {
        fill: #185e2b;
      }

      .st4 {
        fill: #eaac00;
      }
    </style>
  </defs>
  <g id="_橘子" data-name="橘子">
    <g>
      <ellipse class="st0" cx="269.46" cy="351.57" rx="269.46" ry="234.76"/>
      <path class="st4" d="M488.55,212.59c20.85,33.51,32.69,71.91,32.69,112.73,0,130.53-121.08,236.35-270.43,236.35-90.73,0-169.8-39.22-218.85-99.13,45.81,73.63,133.19,122.99,235.71,123.78,149.35,1.16,272.35-105.86,271.25-236.35-.43-51.24-18.66-98.67-50.37-137.39Z"/>
    </g>
  </g>
  <g id="_根" data-name="根">
    <path class="st3" d="M253.76,155.38c7.5-17.95,17.81-130.29,17.81-145.35s11.56-12.74,12.81,4.05c1.25,16.79-7.81,123.34-12.81,141.29s-25.31,17.95-17.81,0Z"/>
  </g>
  <g id="_嘴巴" data-name="嘴巴">
    <path class="st2" d="M151.1,344.05s-4.83,41.01,122.98,11.56c127.82-29.45,108.47-73.19,108.47-73.19"/>
  </g>
  <g id="_右眼" data-name="右眼">
    <path class="st2" d="M296.95,252.11s-6.43,41.63,20.13,41.63,20.13-41.63,20.13-41.63"/>
  </g>
  <g id="_左眼" data-name="左眼">
    <path class="st2" d="M168.58,252.11s-6.43,41.63,20.13,41.63,20.13-41.63,20.13-41.63"/>
  </g>
  <g id="_葉子" data-name="葉子">
    <path class="st3" d="M280.63,56.53c-6.11,80.19,98.91,223.74,283.58,184.68-9.1-67.48-64.04-216.09-283.58-184.68Z"/>
    <path class="st1" d="M359.66,107.55c28.91,2.5,94.02,22.78,123.16,83.84"/>
    <path class="st1" d="M403.03,95.99c.96,8.1-3.59,26.48-29.49,35.27"/>
    <path class="st1" d="M438.88,114.49c.96,8.1-3.58,26.48-29.49,35.27"/>
    <path class="st1" d="M468.95,141.09c.96,8.1-3.58,26.48-29.49,35.27"/>
  </g>
</svg>